# xmcd
#
# Track frame offsets:
# 150
# 15640
# 34809
# 52959
# 66547
# 81334
# 96877
# 112917
# 127384
# 142173
# 157508
# 172645
#
# Disc length: 2500 seconds
#
# Revision: 0
# Processed by: cddbd v1.5PL3 Copyright (c) Steve Scherf et al.
# Submitted via: Axialis_AX_CDPlayer 2.6
#
DISCID=9b09c20c
DTITLE=Various Artist - Bluegrass Tribute - CCR
DYEAR=1900
DGENRE=
TTITLE0=Bad Moon rising
TTITLE1=2
TTITLE2=3
TTITLE3=Commodition
TTITLE4=Have you ever seen the rain
TTITLE5=Heard it through the grapevine
TTITLE6=Cotton fields
TTITLE7=Looking out my back door
TTITLE8=Proud Mary
TTITLE9=10
TTITLE10=11
TTITLE11=Who'll stop the rain
EXTD=
EXTT0=
EXTT1=
EXTT2=
EXTT3=
EXTT4=
EXTT5=
EXTT6=
EXTT7=
EXTT8=
EXTT9=
EXTT10=
EXTT11=
PLAYORDER=
